<mxfile host="app.diagrams.net" agent="Mozilla/5.0 (Windows NT 10.0; Win64; x64) AppleWebKit/537.36 (KHTML, like Gecko) Chrome/132.0.0.0 Safari/537.36" version="26.0.12">
  <diagram id="C5RBs43oDa-KdzZeNtuy" name="Page-1">
    <mxGraphModel dx="1509" dy="777" grid="1" gridSize="10" guides="1" tooltips="1" connect="1" arrows="1" fold="1" page="1" pageScale="1" pageWidth="827" pageHeight="1169" background="#ffffff" math="0" shadow="0">
      <root>
        <mxCell id="WIyWlLk6GJQsqaUBKTNV-0" />
        <mxCell id="WIyWlLk6GJQsqaUBKTNV-1" parent="WIyWlLk6GJQsqaUBKTNV-0" />
        <mxCell id="yNhttBrXtNoUmCnIIdbw-0" value="Malware Alert Detected" style="strokeWidth=2;html=1;shape=mxgraph.flowchart.start_1;whiteSpace=wrap;" vertex="1" parent="WIyWlLk6GJQsqaUBKTNV-1">
          <mxGeometry x="350" y="90" width="140" height="50" as="geometry" />
        </mxCell>
        <mxCell id="yNhttBrXtNoUmCnIIdbw-6" style="edgeStyle=orthogonalEdgeStyle;rounded=0;orthogonalLoop=1;jettySize=auto;html=1;entryX=0.5;entryY=0;entryDx=0;entryDy=0;" edge="1" parent="WIyWlLk6GJQsqaUBKTNV-1" source="yNhttBrXtNoUmCnIIdbw-1" target="yNhttBrXtNoUmCnIIdbw-5">
          <mxGeometry relative="1" as="geometry" />
        </mxCell>
        <mxCell id="yNhttBrXtNoUmCnIIdbw-7" value="Yes" style="edgeLabel;html=1;align=center;verticalAlign=middle;resizable=0;points=[];" vertex="1" connectable="0" parent="yNhttBrXtNoUmCnIIdbw-6">
          <mxGeometry x="-0.0476" relative="1" as="geometry">
            <mxPoint as="offset" />
          </mxGeometry>
        </mxCell>
        <mxCell id="yNhttBrXtNoUmCnIIdbw-1" value="Is detection on game server?" style="strokeWidth=2;html=1;shape=mxgraph.flowchart.decision;whiteSpace=wrap;" vertex="1" parent="WIyWlLk6GJQsqaUBKTNV-1">
          <mxGeometry x="350" y="180" width="140" height="140" as="geometry" />
        </mxCell>
        <mxCell id="yNhttBrXtNoUmCnIIdbw-2" style="edgeStyle=orthogonalEdgeStyle;rounded=0;orthogonalLoop=1;jettySize=auto;html=1;entryX=0.5;entryY=0;entryDx=0;entryDy=0;entryPerimeter=0;" edge="1" parent="WIyWlLk6GJQsqaUBKTNV-1" source="yNhttBrXtNoUmCnIIdbw-0" target="yNhttBrXtNoUmCnIIdbw-1">
          <mxGeometry relative="1" as="geometry" />
        </mxCell>
        <mxCell id="yNhttBrXtNoUmCnIIdbw-9" style="edgeStyle=orthogonalEdgeStyle;rounded=0;orthogonalLoop=1;jettySize=auto;html=1;entryX=0.5;entryY=0;entryDx=0;entryDy=0;" edge="1" parent="WIyWlLk6GJQsqaUBKTNV-1" source="yNhttBrXtNoUmCnIIdbw-5" target="yNhttBrXtNoUmCnIIdbw-8">
          <mxGeometry relative="1" as="geometry" />
        </mxCell>
        <mxCell id="yNhttBrXtNoUmCnIIdbw-5" value="Isolate Affected Server" style="rounded=1;whiteSpace=wrap;html=1;absoluteArcSize=1;arcSize=14;strokeWidth=2;" vertex="1" parent="WIyWlLk6GJQsqaUBKTNV-1">
          <mxGeometry x="200" y="380" width="160" height="40" as="geometry" />
        </mxCell>
        <mxCell id="yNhttBrXtNoUmCnIIdbw-8" value="Contact Game Server Team" style="rounded=1;whiteSpace=wrap;html=1;absoluteArcSize=1;arcSize=14;strokeWidth=2;" vertex="1" parent="WIyWlLk6GJQsqaUBKTNV-1">
          <mxGeometry x="200" y="470" width="160" height="40" as="geometry" />
        </mxCell>
        <mxCell id="yNhttBrXtNoUmCnIIdbw-16" style="edgeStyle=orthogonalEdgeStyle;rounded=0;orthogonalLoop=1;jettySize=auto;html=1;entryX=0.5;entryY=0;entryDx=0;entryDy=0;" edge="1" parent="WIyWlLk6GJQsqaUBKTNV-1" source="yNhttBrXtNoUmCnIIdbw-10" target="yNhttBrXtNoUmCnIIdbw-15">
          <mxGeometry relative="1" as="geometry" />
        </mxCell>
        <mxCell id="yNhttBrXtNoUmCnIIdbw-17" value="Yes" style="edgeLabel;html=1;align=center;verticalAlign=middle;resizable=0;points=[];" vertex="1" connectable="0" parent="yNhttBrXtNoUmCnIIdbw-16">
          <mxGeometry x="0.4" relative="1" as="geometry">
            <mxPoint as="offset" />
          </mxGeometry>
        </mxCell>
        <mxCell id="yNhttBrXtNoUmCnIIdbw-26" style="edgeStyle=orthogonalEdgeStyle;rounded=0;orthogonalLoop=1;jettySize=auto;html=1;entryX=0.5;entryY=0;entryDx=0;entryDy=0;" edge="1" parent="WIyWlLk6GJQsqaUBKTNV-1" source="yNhttBrXtNoUmCnIIdbw-10" target="yNhttBrXtNoUmCnIIdbw-22">
          <mxGeometry relative="1" as="geometry" />
        </mxCell>
        <mxCell id="yNhttBrXtNoUmCnIIdbw-27" value="No" style="edgeLabel;html=1;align=center;verticalAlign=middle;resizable=0;points=[];" vertex="1" connectable="0" parent="yNhttBrXtNoUmCnIIdbw-26">
          <mxGeometry x="-0.025" y="1" relative="1" as="geometry">
            <mxPoint as="offset" />
          </mxGeometry>
        </mxCell>
        <mxCell id="yNhttBrXtNoUmCnIIdbw-10" value="Is player data affected?" style="strokeWidth=2;html=1;shape=mxgraph.flowchart.decision;whiteSpace=wrap;" vertex="1" parent="WIyWlLk6GJQsqaUBKTNV-1">
          <mxGeometry x="210" y="560" width="140" height="140" as="geometry" />
        </mxCell>
        <mxCell id="yNhttBrXtNoUmCnIIdbw-11" style="edgeStyle=orthogonalEdgeStyle;rounded=0;orthogonalLoop=1;jettySize=auto;html=1;entryX=0.5;entryY=0;entryDx=0;entryDy=0;entryPerimeter=0;" edge="1" parent="WIyWlLk6GJQsqaUBKTNV-1" source="yNhttBrXtNoUmCnIIdbw-8" target="yNhttBrXtNoUmCnIIdbw-10">
          <mxGeometry relative="1" as="geometry" />
        </mxCell>
        <mxCell id="yNhttBrXtNoUmCnIIdbw-41" style="edgeStyle=orthogonalEdgeStyle;rounded=0;orthogonalLoop=1;jettySize=auto;html=1;entryX=0.5;entryY=0;entryDx=0;entryDy=0;" edge="1" parent="WIyWlLk6GJQsqaUBKTNV-1" source="yNhttBrXtNoUmCnIIdbw-12" target="yNhttBrXtNoUmCnIIdbw-40">
          <mxGeometry relative="1" as="geometry" />
        </mxCell>
        <mxCell id="yNhttBrXtNoUmCnIIdbw-42" value="Yes" style="edgeLabel;html=1;align=center;verticalAlign=middle;resizable=0;points=[];" vertex="1" connectable="0" parent="yNhttBrXtNoUmCnIIdbw-41">
          <mxGeometry x="-0.0778" relative="1" as="geometry">
            <mxPoint as="offset" />
          </mxGeometry>
        </mxCell>
        <mxCell id="yNhttBrXtNoUmCnIIdbw-50" style="edgeStyle=orthogonalEdgeStyle;rounded=0;orthogonalLoop=1;jettySize=auto;html=1;entryX=0.5;entryY=0;entryDx=0;entryDy=0;" edge="1" parent="WIyWlLk6GJQsqaUBKTNV-1" source="yNhttBrXtNoUmCnIIdbw-12" target="yNhttBrXtNoUmCnIIdbw-49">
          <mxGeometry relative="1" as="geometry" />
        </mxCell>
        <mxCell id="yNhttBrXtNoUmCnIIdbw-51" value="No" style="edgeLabel;html=1;align=center;verticalAlign=middle;resizable=0;points=[];" vertex="1" connectable="0" parent="yNhttBrXtNoUmCnIIdbw-50">
          <mxGeometry x="0.0067" relative="1" as="geometry">
            <mxPoint as="offset" />
          </mxGeometry>
        </mxCell>
        <mxCell id="yNhttBrXtNoUmCnIIdbw-12" value="Is it on dev/admin system?" style="strokeWidth=2;html=1;shape=mxgraph.flowchart.decision;whiteSpace=wrap;" vertex="1" parent="WIyWlLk6GJQsqaUBKTNV-1">
          <mxGeometry x="790" y="420" width="140" height="140" as="geometry" />
        </mxCell>
        <mxCell id="yNhttBrXtNoUmCnIIdbw-13" style="edgeStyle=orthogonalEdgeStyle;rounded=0;orthogonalLoop=1;jettySize=auto;html=1;entryX=0.5;entryY=0;entryDx=0;entryDy=0;entryPerimeter=0;" edge="1" parent="WIyWlLk6GJQsqaUBKTNV-1" source="yNhttBrXtNoUmCnIIdbw-1" target="yNhttBrXtNoUmCnIIdbw-12">
          <mxGeometry relative="1" as="geometry" />
        </mxCell>
        <mxCell id="yNhttBrXtNoUmCnIIdbw-46" value="No" style="edgeLabel;html=1;align=center;verticalAlign=middle;resizable=0;points=[];" vertex="1" connectable="0" parent="yNhttBrXtNoUmCnIIdbw-13">
          <mxGeometry x="0.6556" relative="1" as="geometry">
            <mxPoint as="offset" />
          </mxGeometry>
        </mxCell>
        <mxCell id="yNhttBrXtNoUmCnIIdbw-19" style="edgeStyle=orthogonalEdgeStyle;rounded=0;orthogonalLoop=1;jettySize=auto;html=1;entryX=0.5;entryY=0;entryDx=0;entryDy=0;" edge="1" parent="WIyWlLk6GJQsqaUBKTNV-1" source="yNhttBrXtNoUmCnIIdbw-15" target="yNhttBrXtNoUmCnIIdbw-18">
          <mxGeometry relative="1" as="geometry" />
        </mxCell>
        <mxCell id="yNhttBrXtNoUmCnIIdbw-15" value="Notify Data Protection Officer" style="rounded=1;whiteSpace=wrap;html=1;absoluteArcSize=1;arcSize=14;strokeWidth=2;" vertex="1" parent="WIyWlLk6GJQsqaUBKTNV-1">
          <mxGeometry x="40" y="760" width="160" height="40" as="geometry" />
        </mxCell>
        <mxCell id="yNhttBrXtNoUmCnIIdbw-21" style="edgeStyle=orthogonalEdgeStyle;rounded=0;orthogonalLoop=1;jettySize=auto;html=1;entryX=0.5;entryY=0;entryDx=0;entryDy=0;" edge="1" parent="WIyWlLk6GJQsqaUBKTNV-1" source="yNhttBrXtNoUmCnIIdbw-18" target="yNhttBrXtNoUmCnIIdbw-20">
          <mxGeometry relative="1" as="geometry" />
        </mxCell>
        <mxCell id="yNhttBrXtNoUmCnIIdbw-18" value="Initiate Player Data Protection Protocol" style="rounded=1;whiteSpace=wrap;html=1;absoluteArcSize=1;arcSize=14;strokeWidth=2;" vertex="1" parent="WIyWlLk6GJQsqaUBKTNV-1">
          <mxGeometry x="40" y="870" width="160" height="40" as="geometry" />
        </mxCell>
        <mxCell id="yNhttBrXtNoUmCnIIdbw-36" style="edgeStyle=orthogonalEdgeStyle;rounded=0;orthogonalLoop=1;jettySize=auto;html=1;entryX=0;entryY=0.5;entryDx=0;entryDy=0;" edge="1" parent="WIyWlLk6GJQsqaUBKTNV-1" source="yNhttBrXtNoUmCnIIdbw-20" target="yNhttBrXtNoUmCnIIdbw-35">
          <mxGeometry relative="1" as="geometry">
            <Array as="points">
              <mxPoint x="120" y="1160" />
            </Array>
          </mxGeometry>
        </mxCell>
        <mxCell id="yNhttBrXtNoUmCnIIdbw-20" value="Verify Authentication Systems" style="rounded=1;whiteSpace=wrap;html=1;absoluteArcSize=1;arcSize=14;strokeWidth=2;" vertex="1" parent="WIyWlLk6GJQsqaUBKTNV-1">
          <mxGeometry x="40" y="980" width="160" height="40" as="geometry" />
        </mxCell>
        <mxCell id="yNhttBrXtNoUmCnIIdbw-22" value="Check Game Service Integrity" style="rounded=1;whiteSpace=wrap;html=1;absoluteArcSize=1;arcSize=14;strokeWidth=2;" vertex="1" parent="WIyWlLk6GJQsqaUBKTNV-1">
          <mxGeometry x="310" y="750" width="160" height="40" as="geometry" />
        </mxCell>
        <mxCell id="yNhttBrXtNoUmCnIIdbw-30" style="edgeStyle=orthogonalEdgeStyle;rounded=0;orthogonalLoop=1;jettySize=auto;html=1;entryX=0.5;entryY=0;entryDx=0;entryDy=0;" edge="1" parent="WIyWlLk6GJQsqaUBKTNV-1" source="yNhttBrXtNoUmCnIIdbw-25" target="yNhttBrXtNoUmCnIIdbw-29">
          <mxGeometry relative="1" as="geometry" />
        </mxCell>
        <mxCell id="yNhttBrXtNoUmCnIIdbw-31" value="Yes" style="edgeLabel;html=1;align=center;verticalAlign=middle;resizable=0;points=[];" vertex="1" connectable="0" parent="yNhttBrXtNoUmCnIIdbw-30">
          <mxGeometry x="-0.0462" relative="1" as="geometry">
            <mxPoint as="offset" />
          </mxGeometry>
        </mxCell>
        <mxCell id="yNhttBrXtNoUmCnIIdbw-33" style="edgeStyle=orthogonalEdgeStyle;rounded=0;orthogonalLoop=1;jettySize=auto;html=1;entryX=0.5;entryY=0;entryDx=0;entryDy=0;" edge="1" parent="WIyWlLk6GJQsqaUBKTNV-1" source="yNhttBrXtNoUmCnIIdbw-25" target="yNhttBrXtNoUmCnIIdbw-32">
          <mxGeometry relative="1" as="geometry" />
        </mxCell>
        <mxCell id="yNhttBrXtNoUmCnIIdbw-34" value="No" style="edgeLabel;html=1;align=center;verticalAlign=middle;resizable=0;points=[];" vertex="1" connectable="0" parent="yNhttBrXtNoUmCnIIdbw-33">
          <mxGeometry x="-0.0125" y="1" relative="1" as="geometry">
            <mxPoint as="offset" />
          </mxGeometry>
        </mxCell>
        <mxCell id="yNhttBrXtNoUmCnIIdbw-25" value="Are matchmaking services affected?" style="strokeWidth=2;html=1;shape=mxgraph.flowchart.decision;whiteSpace=wrap;" vertex="1" parent="WIyWlLk6GJQsqaUBKTNV-1">
          <mxGeometry x="320" y="830" width="140" height="140" as="geometry" />
        </mxCell>
        <mxCell id="yNhttBrXtNoUmCnIIdbw-28" style="edgeStyle=orthogonalEdgeStyle;rounded=0;orthogonalLoop=1;jettySize=auto;html=1;entryX=0.5;entryY=0;entryDx=0;entryDy=0;entryPerimeter=0;" edge="1" parent="WIyWlLk6GJQsqaUBKTNV-1" source="yNhttBrXtNoUmCnIIdbw-22" target="yNhttBrXtNoUmCnIIdbw-25">
          <mxGeometry relative="1" as="geometry" />
        </mxCell>
        <mxCell id="yNhttBrXtNoUmCnIIdbw-37" style="edgeStyle=orthogonalEdgeStyle;rounded=0;orthogonalLoop=1;jettySize=auto;html=1;entryX=0.5;entryY=0;entryDx=0;entryDy=0;" edge="1" parent="WIyWlLk6GJQsqaUBKTNV-1" source="yNhttBrXtNoUmCnIIdbw-29" target="yNhttBrXtNoUmCnIIdbw-35">
          <mxGeometry relative="1" as="geometry" />
        </mxCell>
        <mxCell id="yNhttBrXtNoUmCnIIdbw-29" value="Failover to Backup Matchmaking" style="rounded=1;whiteSpace=wrap;html=1;absoluteArcSize=1;arcSize=14;strokeWidth=2;" vertex="1" parent="WIyWlLk6GJQsqaUBKTNV-1">
          <mxGeometry x="220" y="1010" width="160" height="40" as="geometry" />
        </mxCell>
        <mxCell id="yNhttBrXtNoUmCnIIdbw-38" style="edgeStyle=orthogonalEdgeStyle;rounded=0;orthogonalLoop=1;jettySize=auto;html=1;entryX=0.5;entryY=0;entryDx=0;entryDy=0;" edge="1" parent="WIyWlLk6GJQsqaUBKTNV-1" source="yNhttBrXtNoUmCnIIdbw-32" target="yNhttBrXtNoUmCnIIdbw-35">
          <mxGeometry relative="1" as="geometry" />
        </mxCell>
        <mxCell id="yNhttBrXtNoUmCnIIdbw-32" value="Monitor Game Performance" style="rounded=1;whiteSpace=wrap;html=1;absoluteArcSize=1;arcSize=14;strokeWidth=2;" vertex="1" parent="WIyWlLk6GJQsqaUBKTNV-1">
          <mxGeometry x="430" y="1010" width="160" height="40" as="geometry" />
        </mxCell>
        <mxCell id="yNhttBrXtNoUmCnIIdbw-35" value="Analyse Server Logs" style="rounded=1;whiteSpace=wrap;html=1;absoluteArcSize=1;arcSize=14;strokeWidth=2;" vertex="1" parent="WIyWlLk6GJQsqaUBKTNV-1">
          <mxGeometry x="334" y="1140" width="160" height="40" as="geometry" />
        </mxCell>
        <mxCell id="yNhttBrXtNoUmCnIIdbw-44" style="edgeStyle=orthogonalEdgeStyle;rounded=0;orthogonalLoop=1;jettySize=auto;html=1;entryX=0.5;entryY=0;entryDx=0;entryDy=0;" edge="1" parent="WIyWlLk6GJQsqaUBKTNV-1" source="yNhttBrXtNoUmCnIIdbw-40" target="yNhttBrXtNoUmCnIIdbw-43">
          <mxGeometry relative="1" as="geometry" />
        </mxCell>
        <mxCell id="yNhttBrXtNoUmCnIIdbw-40" value="Secure Dev Environment" style="rounded=1;whiteSpace=wrap;html=1;absoluteArcSize=1;arcSize=14;strokeWidth=2;" vertex="1" parent="WIyWlLk6GJQsqaUBKTNV-1">
          <mxGeometry x="650" y="610" width="160" height="40" as="geometry" />
        </mxCell>
        <mxCell id="yNhttBrXtNoUmCnIIdbw-47" style="edgeStyle=orthogonalEdgeStyle;rounded=0;orthogonalLoop=1;jettySize=auto;html=1;entryX=0.5;entryY=0;entryDx=0;entryDy=0;" edge="1" parent="WIyWlLk6GJQsqaUBKTNV-1" source="yNhttBrXtNoUmCnIIdbw-43" target="yNhttBrXtNoUmCnIIdbw-45">
          <mxGeometry relative="1" as="geometry" />
        </mxCell>
        <mxCell id="yNhttBrXtNoUmCnIIdbw-43" value="Check Source Code Repository" style="rounded=1;whiteSpace=wrap;html=1;absoluteArcSize=1;arcSize=14;strokeWidth=2;" vertex="1" parent="WIyWlLk6GJQsqaUBKTNV-1">
          <mxGeometry x="650" y="750" width="160" height="40" as="geometry" />
        </mxCell>
        <mxCell id="yNhttBrXtNoUmCnIIdbw-48" style="edgeStyle=orthogonalEdgeStyle;rounded=0;orthogonalLoop=1;jettySize=auto;html=1;entryX=1;entryY=0.5;entryDx=0;entryDy=0;" edge="1" parent="WIyWlLk6GJQsqaUBKTNV-1" source="yNhttBrXtNoUmCnIIdbw-45" target="yNhttBrXtNoUmCnIIdbw-35">
          <mxGeometry relative="1" as="geometry">
            <Array as="points">
              <mxPoint x="730" y="1160" />
            </Array>
          </mxGeometry>
        </mxCell>
        <mxCell id="yNhttBrXtNoUmCnIIdbw-45" value="Scan for Compromised Build Systems" style="rounded=1;whiteSpace=wrap;html=1;absoluteArcSize=1;arcSize=14;strokeWidth=2;" vertex="1" parent="WIyWlLk6GJQsqaUBKTNV-1">
          <mxGeometry x="650" y="880" width="160" height="40" as="geometry" />
        </mxCell>
        <mxCell id="yNhttBrXtNoUmCnIIdbw-53" style="edgeStyle=orthogonalEdgeStyle;rounded=0;orthogonalLoop=1;jettySize=auto;html=1;entryX=0.5;entryY=0;entryDx=0;entryDy=0;" edge="1" parent="WIyWlLk6GJQsqaUBKTNV-1" source="yNhttBrXtNoUmCnIIdbw-49" target="yNhttBrXtNoUmCnIIdbw-52">
          <mxGeometry relative="1" as="geometry" />
        </mxCell>
        <mxCell id="yNhttBrXtNoUmCnIIdbw-49" value="Standard Endpoint Response" style="rounded=1;whiteSpace=wrap;html=1;absoluteArcSize=1;arcSize=14;strokeWidth=2;" vertex="1" parent="WIyWlLk6GJQsqaUBKTNV-1">
          <mxGeometry x="890" y="750" width="160" height="40" as="geometry" />
        </mxCell>
        <mxCell id="yNhttBrXtNoUmCnIIdbw-54" style="edgeStyle=orthogonalEdgeStyle;rounded=0;orthogonalLoop=1;jettySize=auto;html=1;entryX=1;entryY=0.5;entryDx=0;entryDy=0;" edge="1" parent="WIyWlLk6GJQsqaUBKTNV-1" source="yNhttBrXtNoUmCnIIdbw-52" target="yNhttBrXtNoUmCnIIdbw-35">
          <mxGeometry relative="1" as="geometry">
            <Array as="points">
              <mxPoint x="970" y="1160" />
            </Array>
          </mxGeometry>
        </mxCell>
        <mxCell id="yNhttBrXtNoUmCnIIdbw-52" value="Standard Malware Removal" style="rounded=1;whiteSpace=wrap;html=1;absoluteArcSize=1;arcSize=14;strokeWidth=2;" vertex="1" parent="WIyWlLk6GJQsqaUBKTNV-1">
          <mxGeometry x="890" y="880" width="160" height="40" as="geometry" />
        </mxCell>
        <mxCell id="yNhttBrXtNoUmCnIIdbw-66" style="edgeStyle=orthogonalEdgeStyle;rounded=0;orthogonalLoop=1;jettySize=auto;html=1;entryX=0.5;entryY=0;entryDx=0;entryDy=0;" edge="1" parent="WIyWlLk6GJQsqaUBKTNV-1" source="yNhttBrXtNoUmCnIIdbw-55" target="yNhttBrXtNoUmCnIIdbw-57">
          <mxGeometry relative="1" as="geometry" />
        </mxCell>
        <mxCell id="yNhttBrXtNoUmCnIIdbw-67" value="Yes" style="edgeLabel;html=1;align=center;verticalAlign=middle;resizable=0;points=[];" vertex="1" connectable="0" parent="yNhttBrXtNoUmCnIIdbw-66">
          <mxGeometry x="-0.01" y="1" relative="1" as="geometry">
            <mxPoint as="offset" />
          </mxGeometry>
        </mxCell>
        <mxCell id="yNhttBrXtNoUmCnIIdbw-71" style="edgeStyle=orthogonalEdgeStyle;rounded=0;orthogonalLoop=1;jettySize=auto;html=1;entryX=0.5;entryY=0;entryDx=0;entryDy=0;" edge="1" parent="WIyWlLk6GJQsqaUBKTNV-1" source="yNhttBrXtNoUmCnIIdbw-55" target="yNhttBrXtNoUmCnIIdbw-68">
          <mxGeometry relative="1" as="geometry" />
        </mxCell>
        <mxCell id="yNhttBrXtNoUmCnIIdbw-72" value="No" style="edgeLabel;html=1;align=center;verticalAlign=middle;resizable=0;points=[];" vertex="1" connectable="0" parent="yNhttBrXtNoUmCnIIdbw-71">
          <mxGeometry x="-0.0092" y="-1" relative="1" as="geometry">
            <mxPoint as="offset" />
          </mxGeometry>
        </mxCell>
        <mxCell id="yNhttBrXtNoUmCnIIdbw-55" value="Is malware targeting game mechanics?" style="strokeWidth=2;html=1;shape=mxgraph.flowchart.decision;whiteSpace=wrap;" vertex="1" parent="WIyWlLk6GJQsqaUBKTNV-1">
          <mxGeometry x="344" y="1260" width="140" height="140" as="geometry" />
        </mxCell>
        <mxCell id="yNhttBrXtNoUmCnIIdbw-56" style="edgeStyle=orthogonalEdgeStyle;rounded=0;orthogonalLoop=1;jettySize=auto;html=1;entryX=0.5;entryY=0;entryDx=0;entryDy=0;entryPerimeter=0;" edge="1" parent="WIyWlLk6GJQsqaUBKTNV-1" source="yNhttBrXtNoUmCnIIdbw-35" target="yNhttBrXtNoUmCnIIdbw-55">
          <mxGeometry relative="1" as="geometry" />
        </mxCell>
        <mxCell id="yNhttBrXtNoUmCnIIdbw-62" style="edgeStyle=orthogonalEdgeStyle;rounded=0;orthogonalLoop=1;jettySize=auto;html=1;entryX=0.5;entryY=0;entryDx=0;entryDy=0;" edge="1" parent="WIyWlLk6GJQsqaUBKTNV-1" source="yNhttBrXtNoUmCnIIdbw-57" target="yNhttBrXtNoUmCnIIdbw-58">
          <mxGeometry relative="1" as="geometry" />
        </mxCell>
        <mxCell id="yNhttBrXtNoUmCnIIdbw-57" value="Engage Game Development Team" style="rounded=1;whiteSpace=wrap;html=1;absoluteArcSize=1;arcSize=14;strokeWidth=2;" vertex="1" parent="WIyWlLk6GJQsqaUBKTNV-1">
          <mxGeometry x="184" y="1450" width="160" height="40" as="geometry" />
        </mxCell>
        <mxCell id="yNhttBrXtNoUmCnIIdbw-63" style="edgeStyle=orthogonalEdgeStyle;rounded=0;orthogonalLoop=1;jettySize=auto;html=1;exitX=0.5;exitY=1;exitDx=0;exitDy=0;entryX=0.5;entryY=0;entryDx=0;entryDy=0;" edge="1" parent="WIyWlLk6GJQsqaUBKTNV-1" source="yNhttBrXtNoUmCnIIdbw-58" target="yNhttBrXtNoUmCnIIdbw-59">
          <mxGeometry relative="1" as="geometry" />
        </mxCell>
        <mxCell id="yNhttBrXtNoUmCnIIdbw-58" value="Check for Exploitation of Game Logic" style="rounded=1;whiteSpace=wrap;html=1;absoluteArcSize=1;arcSize=14;strokeWidth=2;" vertex="1" parent="WIyWlLk6GJQsqaUBKTNV-1">
          <mxGeometry x="184" y="1530" width="160" height="40" as="geometry" />
        </mxCell>
        <mxCell id="yNhttBrXtNoUmCnIIdbw-64" style="edgeStyle=orthogonalEdgeStyle;rounded=0;orthogonalLoop=1;jettySize=auto;html=1;entryX=0.5;entryY=0;entryDx=0;entryDy=0;" edge="1" parent="WIyWlLk6GJQsqaUBKTNV-1" source="yNhttBrXtNoUmCnIIdbw-59" target="yNhttBrXtNoUmCnIIdbw-60">
          <mxGeometry relative="1" as="geometry" />
        </mxCell>
        <mxCell id="yNhttBrXtNoUmCnIIdbw-59" value="Review Recent Game Updates" style="rounded=1;whiteSpace=wrap;html=1;absoluteArcSize=1;arcSize=14;strokeWidth=2;" vertex="1" parent="WIyWlLk6GJQsqaUBKTNV-1">
          <mxGeometry x="184" y="1610" width="160" height="40" as="geometry" />
        </mxCell>
        <mxCell id="yNhttBrXtNoUmCnIIdbw-65" style="edgeStyle=orthogonalEdgeStyle;rounded=0;orthogonalLoop=1;jettySize=auto;html=1;entryX=0.5;entryY=0;entryDx=0;entryDy=0;" edge="1" parent="WIyWlLk6GJQsqaUBKTNV-1" source="yNhttBrXtNoUmCnIIdbw-60" target="yNhttBrXtNoUmCnIIdbw-61">
          <mxGeometry relative="1" as="geometry" />
        </mxCell>
        <mxCell id="yNhttBrXtNoUmCnIIdbw-60" value="Test Game Integrity" style="rounded=1;whiteSpace=wrap;html=1;absoluteArcSize=1;arcSize=14;strokeWidth=2;" vertex="1" parent="WIyWlLk6GJQsqaUBKTNV-1">
          <mxGeometry x="184" y="1690" width="160" height="40" as="geometry" />
        </mxCell>
        <mxCell id="yNhttBrXtNoUmCnIIdbw-75" style="edgeStyle=orthogonalEdgeStyle;rounded=0;orthogonalLoop=1;jettySize=auto;html=1;entryX=0;entryY=0.5;entryDx=0;entryDy=0;" edge="1" parent="WIyWlLk6GJQsqaUBKTNV-1" source="yNhttBrXtNoUmCnIIdbw-61" target="yNhttBrXtNoUmCnIIdbw-73">
          <mxGeometry relative="1" as="geometry" />
        </mxCell>
        <mxCell id="yNhttBrXtNoUmCnIIdbw-61" value="Verify Anti-Cheat Systems" style="rounded=1;whiteSpace=wrap;html=1;absoluteArcSize=1;arcSize=14;strokeWidth=2;" vertex="1" parent="WIyWlLk6GJQsqaUBKTNV-1">
          <mxGeometry x="184" y="1770" width="160" height="40" as="geometry" />
        </mxCell>
        <mxCell id="yNhttBrXtNoUmCnIIdbw-70" style="edgeStyle=orthogonalEdgeStyle;rounded=0;orthogonalLoop=1;jettySize=auto;html=1;entryX=0.5;entryY=0;entryDx=0;entryDy=0;" edge="1" parent="WIyWlLk6GJQsqaUBKTNV-1" source="yNhttBrXtNoUmCnIIdbw-68" target="yNhttBrXtNoUmCnIIdbw-69">
          <mxGeometry relative="1" as="geometry" />
        </mxCell>
        <mxCell id="yNhttBrXtNoUmCnIIdbw-68" value="Standard Malware Analysis" style="rounded=1;whiteSpace=wrap;html=1;absoluteArcSize=1;arcSize=14;strokeWidth=2;" vertex="1" parent="WIyWlLk6GJQsqaUBKTNV-1">
          <mxGeometry x="470" y="1700" width="160" height="40" as="geometry" />
        </mxCell>
        <mxCell id="yNhttBrXtNoUmCnIIdbw-74" style="edgeStyle=orthogonalEdgeStyle;rounded=0;orthogonalLoop=1;jettySize=auto;html=1;entryX=1;entryY=0.5;entryDx=0;entryDy=0;" edge="1" parent="WIyWlLk6GJQsqaUBKTNV-1" source="yNhttBrXtNoUmCnIIdbw-69" target="yNhttBrXtNoUmCnIIdbw-73">
          <mxGeometry relative="1" as="geometry" />
        </mxCell>
        <mxCell id="yNhttBrXtNoUmCnIIdbw-69" value="Run Cortex Analysers on Samples" style="rounded=1;whiteSpace=wrap;html=1;absoluteArcSize=1;arcSize=14;strokeWidth=2;" vertex="1" parent="WIyWlLk6GJQsqaUBKTNV-1">
          <mxGeometry x="470" y="1770" width="160" height="40" as="geometry" />
        </mxCell>
        <mxCell id="yNhttBrXtNoUmCnIIdbw-77" style="edgeStyle=orthogonalEdgeStyle;rounded=0;orthogonalLoop=1;jettySize=auto;html=1;entryX=0.5;entryY=0;entryDx=0;entryDy=0;" edge="1" parent="WIyWlLk6GJQsqaUBKTNV-1" source="yNhttBrXtNoUmCnIIdbw-73" target="yNhttBrXtNoUmCnIIdbw-76">
          <mxGeometry relative="1" as="geometry" />
        </mxCell>
        <mxCell id="yNhttBrXtNoUmCnIIdbw-73" value="Update MISP with IOCs" style="rounded=1;whiteSpace=wrap;html=1;absoluteArcSize=1;arcSize=14;strokeWidth=2;" vertex="1" parent="WIyWlLk6GJQsqaUBKTNV-1">
          <mxGeometry x="324" y="1910" width="160" height="40" as="geometry" />
        </mxCell>
        <mxCell id="yNhttBrXtNoUmCnIIdbw-80" style="edgeStyle=orthogonalEdgeStyle;rounded=0;orthogonalLoop=1;jettySize=auto;html=1;" edge="1" parent="WIyWlLk6GJQsqaUBKTNV-1" source="yNhttBrXtNoUmCnIIdbw-76" target="yNhttBrXtNoUmCnIIdbw-78">
          <mxGeometry relative="1" as="geometry" />
        </mxCell>
        <mxCell id="yNhttBrXtNoUmCnIIdbw-76" value="Document in TheHive" style="rounded=1;whiteSpace=wrap;html=1;absoluteArcSize=1;arcSize=14;strokeWidth=2;" vertex="1" parent="WIyWlLk6GJQsqaUBKTNV-1">
          <mxGeometry x="324" y="1990" width="160" height="40" as="geometry" />
        </mxCell>
        <mxCell id="yNhttBrXtNoUmCnIIdbw-81" style="edgeStyle=orthogonalEdgeStyle;rounded=0;orthogonalLoop=1;jettySize=auto;html=1;entryX=0.5;entryY=0;entryDx=0;entryDy=0;" edge="1" parent="WIyWlLk6GJQsqaUBKTNV-1" source="yNhttBrXtNoUmCnIIdbw-78" target="yNhttBrXtNoUmCnIIdbw-79">
          <mxGeometry relative="1" as="geometry" />
        </mxCell>
        <mxCell id="yNhttBrXtNoUmCnIIdbw-78" value="Cross-reference with Beta Testing Incidents" style="rounded=1;whiteSpace=wrap;html=1;absoluteArcSize=1;arcSize=14;strokeWidth=2;" vertex="1" parent="WIyWlLk6GJQsqaUBKTNV-1">
          <mxGeometry x="324" y="2070" width="160" height="40" as="geometry" />
        </mxCell>
        <mxCell id="yNhttBrXtNoUmCnIIdbw-79" value="Update Security Playbooks" style="rounded=1;whiteSpace=wrap;html=1;absoluteArcSize=1;arcSize=14;strokeWidth=2;" vertex="1" parent="WIyWlLk6GJQsqaUBKTNV-1">
          <mxGeometry x="324" y="2150" width="160" height="40" as="geometry" />
        </mxCell>
        <mxCell id="yNhttBrXtNoUmCnIIdbw-86" style="edgeStyle=orthogonalEdgeStyle;rounded=0;orthogonalLoop=1;jettySize=auto;html=1;entryX=0.5;entryY=0;entryDx=0;entryDy=0;" edge="1" parent="WIyWlLk6GJQsqaUBKTNV-1" source="yNhttBrXtNoUmCnIIdbw-82" target="yNhttBrXtNoUmCnIIdbw-84">
          <mxGeometry relative="1" as="geometry" />
        </mxCell>
        <mxCell id="yNhttBrXtNoUmCnIIdbw-90" value="Yes" style="edgeLabel;html=1;align=center;verticalAlign=middle;resizable=0;points=[];" vertex="1" connectable="0" parent="yNhttBrXtNoUmCnIIdbw-86">
          <mxGeometry x="-0.0745" y="1" relative="1" as="geometry">
            <mxPoint as="offset" />
          </mxGeometry>
        </mxCell>
        <mxCell id="yNhttBrXtNoUmCnIIdbw-91" style="edgeStyle=orthogonalEdgeStyle;rounded=0;orthogonalLoop=1;jettySize=auto;html=1;entryX=1;entryY=0.5;entryDx=0;entryDy=0;" edge="1" parent="WIyWlLk6GJQsqaUBKTNV-1" source="yNhttBrXtNoUmCnIIdbw-82" target="yNhttBrXtNoUmCnIIdbw-88">
          <mxGeometry relative="1" as="geometry">
            <Array as="points">
              <mxPoint x="500" y="2320" />
              <mxPoint x="500" y="2630" />
            </Array>
          </mxGeometry>
        </mxCell>
        <mxCell id="yNhttBrXtNoUmCnIIdbw-92" value="No" style="edgeLabel;html=1;align=center;verticalAlign=middle;resizable=0;points=[];" vertex="1" connectable="0" parent="yNhttBrXtNoUmCnIIdbw-91">
          <mxGeometry x="-0.0905" y="-1" relative="1" as="geometry">
            <mxPoint as="offset" />
          </mxGeometry>
        </mxCell>
        <mxCell id="yNhttBrXtNoUmCnIIdbw-82" value="Is malware persistent?" style="strokeWidth=2;html=1;shape=mxgraph.flowchart.decision;whiteSpace=wrap;" vertex="1" parent="WIyWlLk6GJQsqaUBKTNV-1">
          <mxGeometry x="334" y="2250" width="140" height="140" as="geometry" />
        </mxCell>
        <mxCell id="yNhttBrXtNoUmCnIIdbw-83" style="edgeStyle=orthogonalEdgeStyle;rounded=0;orthogonalLoop=1;jettySize=auto;html=1;entryX=0.5;entryY=0;entryDx=0;entryDy=0;entryPerimeter=0;" edge="1" parent="WIyWlLk6GJQsqaUBKTNV-1" source="yNhttBrXtNoUmCnIIdbw-79" target="yNhttBrXtNoUmCnIIdbw-82">
          <mxGeometry relative="1" as="geometry" />
        </mxCell>
        <mxCell id="yNhttBrXtNoUmCnIIdbw-87" style="edgeStyle=orthogonalEdgeStyle;rounded=0;orthogonalLoop=1;jettySize=auto;html=1;entryX=0.5;entryY=0;entryDx=0;entryDy=0;" edge="1" parent="WIyWlLk6GJQsqaUBKTNV-1" source="yNhttBrXtNoUmCnIIdbw-84" target="yNhttBrXtNoUmCnIIdbw-85">
          <mxGeometry relative="1" as="geometry" />
        </mxCell>
        <mxCell id="yNhttBrXtNoUmCnIIdbw-84" value="Engage External Security Partners" style="rounded=1;whiteSpace=wrap;html=1;absoluteArcSize=1;arcSize=14;strokeWidth=2;" vertex="1" parent="WIyWlLk6GJQsqaUBKTNV-1">
          <mxGeometry x="200" y="2430" width="160" height="40" as="geometry" />
        </mxCell>
        <mxCell id="yNhttBrXtNoUmCnIIdbw-89" style="edgeStyle=orthogonalEdgeStyle;rounded=0;orthogonalLoop=1;jettySize=auto;html=1;entryX=0;entryY=0.5;entryDx=0;entryDy=0;" edge="1" parent="WIyWlLk6GJQsqaUBKTNV-1" source="yNhttBrXtNoUmCnIIdbw-85" target="yNhttBrXtNoUmCnIIdbw-88">
          <mxGeometry relative="1" as="geometry" />
        </mxCell>
        <mxCell id="yNhttBrXtNoUmCnIIdbw-85" value="Coordinate Response Across Data Centers" style="rounded=1;whiteSpace=wrap;html=1;absoluteArcSize=1;arcSize=14;strokeWidth=2;" vertex="1" parent="WIyWlLk6GJQsqaUBKTNV-1">
          <mxGeometry x="200" y="2510" width="160" height="40" as="geometry" />
        </mxCell>
        <mxCell id="yNhttBrXtNoUmCnIIdbw-88" value="Perform Post-Incident Review" style="rounded=1;whiteSpace=wrap;html=1;absoluteArcSize=1;arcSize=14;strokeWidth=2;" vertex="1" parent="WIyWlLk6GJQsqaUBKTNV-1">
          <mxGeometry x="320" y="2610" width="160" height="40" as="geometry" />
        </mxCell>
        <mxCell id="yNhttBrXtNoUmCnIIdbw-93" value="Close Incident" style="strokeWidth=2;html=1;shape=mxgraph.flowchart.start_1;whiteSpace=wrap;" vertex="1" parent="WIyWlLk6GJQsqaUBKTNV-1">
          <mxGeometry x="330" y="2740" width="140" height="50" as="geometry" />
        </mxCell>
        <mxCell id="yNhttBrXtNoUmCnIIdbw-95" style="edgeStyle=orthogonalEdgeStyle;rounded=0;orthogonalLoop=1;jettySize=auto;html=1;entryX=0.5;entryY=0;entryDx=0;entryDy=0;entryPerimeter=0;" edge="1" parent="WIyWlLk6GJQsqaUBKTNV-1" source="yNhttBrXtNoUmCnIIdbw-88" target="yNhttBrXtNoUmCnIIdbw-93">
          <mxGeometry relative="1" as="geometry" />
        </mxCell>
      </root>
    </mxGraphModel>
  </diagram>
</mxfile>
